<?xml version="1.0" encoding="UTF-8"?>
<svg width="200px" height="13px" viewBox="0 0 98 13" version="1.1" xmlns="http://www.w3.org/2000/svg" xmlns:xlink="http://www.w3.org/1999/xlink">
    <!-- Generator: Sketch 64 (93537) - https://sketch.com -->
    <title>stars</title>
    <desc>Created with Sketch.</desc>
    <g id="Page-1" stroke="none" stroke-width="1" fill="none" fill-rule="evenodd">
        <g id="Cards-Pro-1-Copy" transform="translate(-62.000000, -7584.000000)" fill-rule="nonzero">
            <g id="stars" transform="translate(62.000000, 7584.000000)">
                <path d="M10.9137627,13 C10.7103929,13 10.4970447,12.9219621 10.2637397,12.7598835 L7.541056,10.89621 C7.26926278,10.7110432 6.73090316,10.7105815 6.4610106,10.8957482 L3.73547588,12.760807 C3.25318548,13.0918907 2.79227741,13.0600291 2.5537456,12.7455689 C2.39314053,12.5340816 2.37080787,12.2427095 2.48722279,11.8797641 L3.47081011,8.78687884 C3.57297015,8.46595389 3.41236507,7.98987674 3.13582023,7.78854829 L0.468730551,5.84637516 C-0.0539487009,5.46542109 -0.0297153901,5.10339928 0.0315806313,4.92007957 C0.0928766527,4.73768337 0.292920257,4.43014954 0.945318997,4.42091429 L4.27811197,4.37427628 C4.62450577,4.36873513 5.04122368,4.07459241 5.15478763,3.75551451 L6.22865591,0.69125848 C6.44010343,0.0895819273 6.8021776,0 6.99984539,0 C7.19656285,0 7.55958735,0.0895819273 7.77008454,0.690796718 L8.84775413,3.75551451 C8.95894226,4.07413064 9.37566017,4.36873513 9.72205397,4.37427628 L13.0529463,4.42091429 C13.7062954,4.4306113 13.9068141,4.73722161 13.9681101,4.91915604 C14.0294062,5.10109047 14.055065,5.46311228 13.5338112,5.84545164 L10.8629202,7.78854829 C10.5873257,7.99033851 10.427671,8.46595389 10.5303062,8.78641708 L11.512468,11.8811494 C11.6284077,12.2440948 11.6051248,12.5354669 11.4445197,12.7464924 C11.320027,12.9071857 11.1271108,13 10.9137627,13 Z" id="Shape" fill="#4383FF"></path>
                <path d="M31.9137627,13 C31.7103929,13 31.4970447,12.9219621 31.2637397,12.7598835 L28.541056,10.89621 C28.2692628,10.7110432 27.7309032,10.7105815 27.4610106,10.8957482 L24.7354759,12.760807 C24.2531855,13.0918907 23.7922774,13.0600291 23.5537456,12.7455689 C23.3931405,12.5340816 23.3708079,12.2427095 23.4872228,11.8797641 L24.4708101,8.78687884 C24.5729701,8.46595389 24.4123651,7.98987674 24.1358202,7.78854829 L21.4687306,5.84637516 C20.9460513,5.46542109 20.9702846,5.10339928 21.0315806,4.92007957 C21.0928767,4.73768337 21.2929203,4.43014954 21.945319,4.42091429 L25.278112,4.37427628 C25.6245058,4.36873513 26.0412237,4.07459241 26.1547876,3.75551451 L27.2286559,0.69125848 C27.4401034,0.0895819273 27.8021776,0 27.9998454,0 C28.1965629,0 28.5595874,0.0895819273 28.7700845,0.690796718 L29.8477541,3.75551451 C29.9589423,4.07413064 30.3756602,4.36873513 30.722054,4.37427628 L34.0529463,4.42091429 C34.7062954,4.4306113 34.9068141,4.73722161 34.9681101,4.91915604 C35.0294062,5.10109047 35.055065,5.46311228 34.5338112,5.84545164 L31.8629202,7.78854829 C31.5873257,7.99033851 31.427671,8.46595389 31.5303062,8.78641708 L32.512468,11.8811494 C32.6284077,12.2440948 32.6051248,12.5354669 32.4445197,12.7464924 C32.320027,12.9071857 32.1271108,13 31.9137627,13 Z" id="Shape" fill="#4383FF"></path>
                <path d="M52.9137627,13 C52.7103929,13 52.4970447,12.9219621 52.2637397,12.7598835 L49.541056,10.89621 C49.2692628,10.7110432 48.7309032,10.7105815 48.4610106,10.8957482 L45.7354759,12.760807 C45.2531855,13.0918907 44.7922774,13.0600291 44.5537456,12.7455689 C44.3931405,12.5340816 44.3708079,12.2427095 44.4872228,11.8797641 L45.4708101,8.78687884 C45.5729701,8.46595389 45.4123651,7.98987674 45.1358202,7.78854829 L42.4687306,5.84637516 C41.9460513,5.46542109 41.9702846,5.10339928 42.0315806,4.92007957 C42.0928767,4.73768337 42.2929203,4.43014954 42.945319,4.42091429 L46.278112,4.37427628 C46.6245058,4.36873513 47.0412237,4.07459241 47.1547876,3.75551451 L48.2286559,0.69125848 C48.4401034,0.0895819273 48.8021776,0 48.9998454,0 C49.1965629,0 49.5595874,0.0895819273 49.7700845,0.690796718 L50.8477541,3.75551451 C50.9589423,4.07413064 51.3756602,4.36873513 51.722054,4.37427628 L55.0529463,4.42091429 C55.7062954,4.4306113 55.9068141,4.73722161 55.9681101,4.91915604 C56.0294062,5.10109047 56.055065,5.46311228 55.5338112,5.84545164 L52.8629202,7.78854829 C52.5873257,7.99033851 52.427671,8.46595389 52.5303062,8.78641708 L53.512468,11.8811494 C53.6284077,12.2440948 53.6051248,12.5354669 53.4445197,12.7464924 C53.320027,12.9071857 53.1271108,13 52.9137627,13 Z" id="Shape" fill="#4383FF"></path>
                <path d="M73.9137627,13 C73.7103929,13 73.4970447,12.9219621 73.2637397,12.7598835 L70.541056,10.89621 C70.2692628,10.7110432 69.7309032,10.7105815 69.4610106,10.8957482 L66.7354759,12.760807 C66.2531855,13.0918907 65.7922774,13.0600291 65.5537456,12.7455689 C65.3931405,12.5340816 65.3708079,12.2427095 65.4872228,11.8797641 L66.4708101,8.78687884 C66.5729701,8.46595389 66.4123651,7.98987674 66.1358202,7.78854829 L63.4687306,5.84637516 C62.9460513,5.46542109 62.9702846,5.10339928 63.0315806,4.92007957 C63.0928767,4.73768337 63.2929203,4.43014954 63.945319,4.42091429 L67.278112,4.37427628 C67.6245058,4.36873513 68.0412237,4.07459241 68.1547876,3.75551451 L69.2286559,0.69125848 C69.4401034,0.0895819273 69.8021776,0 69.9998454,0 C70.1965629,0 70.5595874,0.0895819273 70.7700845,0.690796718 L71.8477541,3.75551451 C71.9589423,4.07413064 72.3756602,4.36873513 72.722054,4.37427628 L76.0529463,4.42091429 C76.7062954,4.4306113 76.9068141,4.73722161 76.9681101,4.91915604 C77.0294062,5.10109047 77.055065,5.46311228 76.5338112,5.84545164 L73.8629202,7.78854829 C73.5873257,7.99033851 73.427671,8.46595389 73.5303062,8.78641708 L74.512468,11.8811494 C74.6284077,12.2440948 74.6051248,12.5354669 74.4445197,12.7464924 C74.320027,12.9071857 74.1271108,13 73.9137627,13 Z" id="Shape" fill="#4383FF"></path>
                <path d="M94.9137627,13 C94.7103929,13 94.4970447,12.9219621 94.2637397,12.7598835 L91.541056,10.89621 C91.2692628,10.7110432 90.7309032,10.7105815 90.4610106,10.8957482 L87.7354759,12.760807 C87.2531855,13.0918907 86.7922774,13.0600291 86.5537456,12.7455689 C86.3931405,12.5340816 86.3708079,12.2427095 86.4872228,11.8797641 L87.4708101,8.78687884 C87.5729701,8.46595389 87.4123651,7.98987674 87.1358202,7.78854829 L84.4687306,5.84637516 C83.9460513,5.46542109 83.9702846,5.10339928 84.0315806,4.92007957 C84.0928767,4.73768337 84.2929203,4.43014954 84.945319,4.42091429 L88.278112,4.37427628 C88.6245058,4.36873513 89.0412237,4.07459241 89.1547876,3.75551451 L90.2286559,0.69125848 C90.4401034,0.0895819273 90.8021776,0 90.9998454,0 C91.1965629,0 91.5595874,0.0895819273 91.7700845,0.690796718 L92.8477541,3.75551451 C92.9589423,4.07413064 93.3756602,4.36873513 93.722054,4.37427628 L97.0529463,4.42091429 C97.7062954,4.4306113 97.9068141,4.73722161 97.9681101,4.91915604 C98.0294062,5.10109047 98.055065,5.46311228 97.5338112,5.84545164 L94.8629202,7.78854829 C94.5873257,7.99033851 94.427671,8.46595389 94.5303062,8.78641708 L95.512468,11.8811494 C95.6284077,12.2440948 95.6051248,12.5354669 95.4445197,12.7464924 C95.320027,12.9071857 95.1271108,13 94.9137627,13 Z" id="Shape" fill="#BBC0D5"></path>
            </g>
        </g>
    </g>
</svg>